<mxfile host="app.diagrams.net" modified="2024-06-25T02:17:00.338Z" agent="Mozilla/5.0 (Windows NT 10.0; Win64; x64) AppleWebKit/537.36 (KHTML, like Gecko) Chrome/126.0.0.0 Safari/537.36 Edg/126.0.0.0" etag="ZJxhHYpxuCaZo9d6zNuW" version="24.6.2" type="onedrive">
  <diagram name="ページ1" id="gAW8-d-y6uNBSeI4pBhl">
    <mxGraphModel grid="1" page="0" gridSize="10" guides="1" tooltips="1" connect="1" arrows="1" fold="1" pageScale="1" pageWidth="827" pageHeight="1169" math="0" shadow="0">
      <root>
        <mxCell id="0" />
        <mxCell id="1" parent="0" />
        <mxCell id="UbM_HAN32u6TZSic6ux6-16" style="edgeStyle=none;curved=1;rounded=0;orthogonalLoop=1;jettySize=auto;html=1;exitX=0.5;exitY=1;exitDx=0;exitDy=0;entryX=0.5;entryY=0;entryDx=0;entryDy=0;fontSize=12;startSize=8;endSize=8;" edge="1" parent="1" source="UbM_HAN32u6TZSic6ux6-1" target="UbM_HAN32u6TZSic6ux6-2">
          <mxGeometry relative="1" as="geometry" />
        </mxCell>
        <mxCell id="UbM_HAN32u6TZSic6ux6-1" value="関数main()&lt;div&gt;開始&lt;/div&gt;" style="rounded=0;whiteSpace=wrap;html=1;" vertex="1" parent="1">
          <mxGeometry x="40" y="-120" width="120" height="60" as="geometry" />
        </mxCell>
        <mxCell id="UbM_HAN32u6TZSic6ux6-17" style="edgeStyle=none;curved=1;rounded=0;orthogonalLoop=1;jettySize=auto;html=1;exitX=0.5;exitY=1;exitDx=0;exitDy=0;entryX=0.5;entryY=0;entryDx=0;entryDy=0;fontSize=12;startSize=8;endSize=8;" edge="1" parent="1" source="UbM_HAN32u6TZSic6ux6-2" target="UbM_HAN32u6TZSic6ux6-3">
          <mxGeometry relative="1" as="geometry" />
        </mxCell>
        <mxCell id="UbM_HAN32u6TZSic6ux6-2" value="関数　players = senkeilist&lt;div&gt;(&quot;Zac_Japan.txt&quot;)&lt;/div&gt;&lt;div&gt;の呼び出し&lt;/div&gt;" style="rounded=1;whiteSpace=wrap;html=1;" vertex="1" parent="1">
          <mxGeometry x="40" y="-30" width="120" height="60" as="geometry" />
        </mxCell>
        <mxCell id="UbM_HAN32u6TZSic6ux6-18" style="edgeStyle=none;curved=1;rounded=0;orthogonalLoop=1;jettySize=auto;html=1;exitX=0.5;exitY=1;exitDx=0;exitDy=0;entryX=0.5;entryY=0;entryDx=0;entryDy=0;fontSize=12;startSize=8;endSize=8;" edge="1" parent="1" source="UbM_HAN32u6TZSic6ux6-3" target="UbM_HAN32u6TZSic6ux6-7">
          <mxGeometry relative="1" as="geometry" />
        </mxCell>
        <mxCell id="UbM_HAN32u6TZSic6ux6-3" value="関数outputlist(players)&lt;div&gt;呼び出し&lt;/div&gt;" style="rounded=1;whiteSpace=wrap;html=1;" vertex="1" parent="1">
          <mxGeometry x="40" y="60" width="120" height="60" as="geometry" />
        </mxCell>
        <mxCell id="UbM_HAN32u6TZSic6ux6-19" style="edgeStyle=none;curved=1;rounded=0;orthogonalLoop=1;jettySize=auto;html=1;exitX=0.5;exitY=1;exitDx=0;exitDy=0;entryX=0.5;entryY=0;entryDx=0;entryDy=0;fontSize=12;startSize=8;endSize=8;" edge="1" parent="1" source="UbM_HAN32u6TZSic6ux6-7" target="UbM_HAN32u6TZSic6ux6-8">
          <mxGeometry relative="1" as="geometry" />
        </mxCell>
        <mxCell id="UbM_HAN32u6TZSic6ux6-7" value="while True" style="rhombus;whiteSpace=wrap;html=1;" vertex="1" parent="1">
          <mxGeometry x="40" y="150" width="120" height="80" as="geometry" />
        </mxCell>
        <mxCell id="UbM_HAN32u6TZSic6ux6-30" style="edgeStyle=none;curved=1;rounded=0;orthogonalLoop=1;jettySize=auto;html=1;exitX=0.5;exitY=1;exitDx=0;exitDy=0;entryX=0.5;entryY=0;entryDx=0;entryDy=0;fontSize=12;startSize=8;endSize=8;" edge="1" parent="1" source="UbM_HAN32u6TZSic6ux6-8" target="UbM_HAN32u6TZSic6ux6-9">
          <mxGeometry relative="1" as="geometry" />
        </mxCell>
        <mxCell id="UbM_HAN32u6TZSic6ux6-8" value="number = int(input(&quot;削除する登録番号は？ &quot;))" style="rounded=1;whiteSpace=wrap;html=1;" vertex="1" parent="1">
          <mxGeometry x="40" y="260" width="120" height="60" as="geometry" />
        </mxCell>
        <mxCell id="UbM_HAN32u6TZSic6ux6-9" value="if&lt;div&gt;number == 0&lt;/div&gt;" style="rhombus;whiteSpace=wrap;html=1;" vertex="1" parent="1">
          <mxGeometry x="40" y="350" width="120" height="80" as="geometry" />
        </mxCell>
        <mxCell id="UbM_HAN32u6TZSic6ux6-22" style="edgeStyle=none;curved=1;rounded=0;orthogonalLoop=1;jettySize=auto;html=1;exitX=0.5;exitY=1;exitDx=0;exitDy=0;entryX=0.5;entryY=0;entryDx=0;entryDy=0;fontSize=12;startSize=8;endSize=8;" edge="1" parent="1" source="UbM_HAN32u6TZSic6ux6-11" target="UbM_HAN32u6TZSic6ux6-12">
          <mxGeometry relative="1" as="geometry" />
        </mxCell>
        <mxCell id="UbM_HAN32u6TZSic6ux6-11" value="print(&quot;プログラムを終了します&quot;)" style="rounded=1;whiteSpace=wrap;html=1;" vertex="1" parent="1">
          <mxGeometry x="130" y="460" width="120" height="60" as="geometry" />
        </mxCell>
        <mxCell id="UbM_HAN32u6TZSic6ux6-12" value="break" style="rounded=1;whiteSpace=wrap;html=1;" vertex="1" parent="1">
          <mxGeometry x="130" y="550" width="120" height="60" as="geometry" />
        </mxCell>
        <mxCell id="UbM_HAN32u6TZSic6ux6-13" value="終了" style="rounded=0;whiteSpace=wrap;html=1;" vertex="1" parent="1">
          <mxGeometry x="40" y="670" width="120" height="60" as="geometry" />
        </mxCell>
        <mxCell id="UbM_HAN32u6TZSic6ux6-24" style="edgeStyle=none;curved=1;rounded=0;orthogonalLoop=1;jettySize=auto;html=1;exitX=0.5;exitY=1;exitDx=0;exitDy=0;fontSize=12;startSize=8;endSize=8;" edge="1" parent="1" source="UbM_HAN32u6TZSic6ux6-14" target="UbM_HAN32u6TZSic6ux6-15">
          <mxGeometry relative="1" as="geometry" />
        </mxCell>
        <mxCell id="UbM_HAN32u6TZSic6ux6-15" value="関数outputlist(players)&lt;div&gt;呼び出し&lt;/div&gt;" style="rounded=1;whiteSpace=wrap;html=1;" vertex="1" parent="1">
          <mxGeometry x="-50" y="550" width="120" height="60" as="geometry" />
        </mxCell>
        <mxCell id="UbM_HAN32u6TZSic6ux6-26" style="edgeStyle=none;curved=1;rounded=0;orthogonalLoop=1;jettySize=auto;html=1;exitX=0;exitY=0.5;exitDx=0;exitDy=0;fontSize=12;startSize=8;endSize=8;" edge="1" parent="1" source="UbM_HAN32u6TZSic6ux6-15" target="UbM_HAN32u6TZSic6ux6-15">
          <mxGeometry relative="1" as="geometry" />
        </mxCell>
        <mxCell id="UbM_HAN32u6TZSic6ux6-14" value="関数delete_player(players, number)呼び出し" style="rounded=1;whiteSpace=wrap;html=1;" vertex="1" parent="1">
          <mxGeometry x="-50" y="450" width="120" height="60" as="geometry" />
        </mxCell>
        <mxCell id="UbM_HAN32u6TZSic6ux6-31" value="" style="endArrow=none;html=1;rounded=0;fontSize=12;startSize=8;endSize=8;curved=1;entryX=1;entryY=0.5;entryDx=0;entryDy=0;" edge="1" parent="1" target="UbM_HAN32u6TZSic6ux6-9">
          <mxGeometry width="50" height="50" relative="1" as="geometry">
            <mxPoint x="190" y="390" as="sourcePoint" />
            <mxPoint x="180" y="450" as="targetPoint" />
          </mxGeometry>
        </mxCell>
        <mxCell id="UbM_HAN32u6TZSic6ux6-32" value="" style="endArrow=classic;html=1;rounded=0;fontSize=12;startSize=8;endSize=8;curved=1;entryX=0.5;entryY=0;entryDx=0;entryDy=0;" edge="1" parent="1" target="UbM_HAN32u6TZSic6ux6-11">
          <mxGeometry width="50" height="50" relative="1" as="geometry">
            <mxPoint x="190" y="390" as="sourcePoint" />
            <mxPoint x="250" y="340" as="targetPoint" />
          </mxGeometry>
        </mxCell>
        <mxCell id="UbM_HAN32u6TZSic6ux6-33" value="" style="endArrow=none;html=1;rounded=0;fontSize=12;startSize=8;endSize=8;curved=1;entryX=0;entryY=0.5;entryDx=0;entryDy=0;" edge="1" parent="1" target="UbM_HAN32u6TZSic6ux6-9">
          <mxGeometry width="50" height="50" relative="1" as="geometry">
            <mxPoint x="10" y="390" as="sourcePoint" />
            <mxPoint x="30" y="410" as="targetPoint" />
          </mxGeometry>
        </mxCell>
        <mxCell id="UbM_HAN32u6TZSic6ux6-34" value="" style="endArrow=classic;html=1;rounded=0;fontSize=12;startSize=8;endSize=8;curved=1;entryX=0.5;entryY=0;entryDx=0;entryDy=0;" edge="1" parent="1" target="UbM_HAN32u6TZSic6ux6-14">
          <mxGeometry width="50" height="50" relative="1" as="geometry">
            <mxPoint x="10" y="390" as="sourcePoint" />
            <mxPoint x="30" y="410" as="targetPoint" />
          </mxGeometry>
        </mxCell>
        <mxCell id="UbM_HAN32u6TZSic6ux6-35" value="" style="endArrow=none;html=1;rounded=0;fontSize=12;startSize=8;endSize=8;curved=1;entryX=0.5;entryY=1;entryDx=0;entryDy=0;" edge="1" parent="1" target="UbM_HAN32u6TZSic6ux6-12">
          <mxGeometry width="50" height="50" relative="1" as="geometry">
            <mxPoint x="190" y="640" as="sourcePoint" />
            <mxPoint x="110" y="610" as="targetPoint" />
          </mxGeometry>
        </mxCell>
        <mxCell id="UbM_HAN32u6TZSic6ux6-37" value="" style="endArrow=none;html=1;rounded=0;fontSize=12;startSize=8;endSize=8;curved=1;" edge="1" parent="1">
          <mxGeometry width="50" height="50" relative="1" as="geometry">
            <mxPoint x="100" y="640" as="sourcePoint" />
            <mxPoint x="190" y="640" as="targetPoint" />
          </mxGeometry>
        </mxCell>
        <mxCell id="UbM_HAN32u6TZSic6ux6-38" value="" style="endArrow=classic;html=1;rounded=0;fontSize=12;startSize=8;endSize=8;curved=1;entryX=0.5;entryY=0;entryDx=0;entryDy=0;" edge="1" parent="1" target="UbM_HAN32u6TZSic6ux6-13">
          <mxGeometry width="50" height="50" relative="1" as="geometry">
            <mxPoint x="100" y="640" as="sourcePoint" />
            <mxPoint x="110" y="610" as="targetPoint" />
          </mxGeometry>
        </mxCell>
        <mxCell id="UbM_HAN32u6TZSic6ux6-40" style="edgeStyle=none;curved=1;rounded=0;orthogonalLoop=1;jettySize=auto;html=1;exitX=1;exitY=0;exitDx=0;exitDy=0;exitPerimeter=0;entryX=0;entryY=0.5;entryDx=0;entryDy=0;fontSize=12;startSize=8;endSize=8;" edge="1" parent="1" source="UbM_HAN32u6TZSic6ux6-39" target="UbM_HAN32u6TZSic6ux6-8">
          <mxGeometry relative="1" as="geometry" />
        </mxCell>
        <mxCell id="UbM_HAN32u6TZSic6ux6-39" value="" style="strokeWidth=2;html=1;shape=mxgraph.flowchart.annotation_1;align=left;pointerEvents=1;" vertex="1" parent="1">
          <mxGeometry x="-100" y="290" width="50" height="290" as="geometry" />
        </mxCell>
      </root>
    </mxGraphModel>
  </diagram>
</mxfile>
